<?xml version="1.0" encoding="utf-8"?>
<!-- Generator: Adobe Illustrator 24.1.0, SVG Export Plug-In . SVG Version: 6.00 Build 0)  -->
<svg version="1.1" id="Layer_1" xmlns="http://www.w3.org/2000/svg" xmlns:xlink="http://www.w3.org/1999/xlink" x="0px" y="0px"
	 viewBox="0 0 512 512" style="enable-background:new 0 0 512 512;" xml:space="preserve">
<style type="text/css">
	.st0{fill:#1D1D1B;}
</style>
<g>
	<g>
		<path class="st0" d="M400,64c-5.3,0-10.6,0.4-15.8,1.1C354.3,24.4,307.2,0,256,0s-98.3,24.4-128.2,65.1
			c-5.2-0.8-10.5-1.1-15.8-1.1C50.2,64,0,114.2,0,176s50.2,112,112,112c13.7,0,27.1-2.5,39.7-7.3c29,25.2,65.8,39.3,104.3,39.3
			c38.5,0,75.3-14.1,104.3-39.3c12.6,4.8,26,7.3,39.7,7.3c61.8,0,112-50.2,112-112S461.8,64,400,64z M400,256
			c-9.7,0-19.2-1.8-28.2-5.2l-18-6.9l-14.5,12.7C316,276.8,286.4,288,256,288s-60-11.2-83.2-31.5l-14.5-12.7l-18,6.9
			c-9,3.5-18.5,5.2-28.2,5.2c-44.1,0-80-35.9-80-80s35.9-80,80-80c3.8,0,7.5,0.3,11.2,0.8l19,2.8l11.4-15.5
			C177.9,51,215.2,32,256,32c40.8,0,78.1,19,102.4,52.1l11.4,15.5l19-2.8c3.7-0.5,7.4-0.8,11.2-0.8c44.1,0,80,35.9,80,80
			S444.1,256,400,256z M96,320c-17.7,0-32,14.3-32,32s14.3,32,32,32s32-14.3,32-32S113.7,320,96,320z M256,352
			c-17.7,0-32,14.3-32,32s14.3,32,32,32s32-14.3,32-32S273.7,352,256,352z M416,320c-17.7,0-32,14.3-32,32s14.3,32,32,32
			s32-14.3,32-32S433.7,320,416,320z M352,448c-17.7,0-32,14.3-32,32s14.3,32,32,32s32-14.3,32-32S369.7,448,352,448z M160,448
			c-17.7,0-32,14.3-32,32s14.3,32,32,32s32-14.3,32-32S177.7,448,160,448z"/>
	</g>
</g>
</svg>
