<?xml version="1.0" encoding="utf-8"?>
<!-- Generator: Adobe Illustrator 24.1.0, SVG Export Plug-In . SVG Version: 6.00 Build 0)  -->
<svg version="1.1" id="Layer_1" xmlns="http://www.w3.org/2000/svg" xmlns:xlink="http://www.w3.org/1999/xlink" x="0px" y="0px"
	 viewBox="0 0 512 512" style="enable-background:new 0 0 512 512;" xml:space="preserve">
<style type="text/css">
	.st0{fill:#1D1D1B;}
</style>
<path class="st0" d="M382.9,292.2l-32.6-18.8c1-5.7,1.8-11.5,1.8-17.4c0-6-0.7-11.8-1.8-17.5l32.6-18.9
	c15.3-8.9,20.5-28.4,11.7-43.7c-8.9-15.3-28.4-20.6-43.7-11.8l-32.9,19c-8.8-7.5-18.9-13.4-29.9-17.4V128c0-17.7-14.3-32-32-32
	c-17.7,0-32,14.3-32,32v37.9c-11.1,3.9-21.1,9.9-29.9,17.4l-32.9-19c-15.3-8.8-34.9-3.6-43.7,11.7c-8.8,15.3-3.6,34.9,11.7,43.7
	l32.6,18.8c-1.1,5.7-1.8,11.5-1.8,17.5c0,6,0.7,11.8,1.8,17.4l-32.6,18.8c-15.3,8.8-20.6,28.4-11.7,43.8
	c8.8,15.2,28.4,20.5,43.7,11.7l32.8-19c8.8,7.5,18.9,13.5,30,17.4V384c0,17.7,14.3,32,32,32c17.7,0,32-14.3,32-32v-37.9
	c11.1-4,21.2-9.9,30-17.4l32.9,19c15.3,8.8,34.9,3.6,43.7-11.7C403.4,320.7,398.2,301.1,382.9,292.2z M224,256c0-17.7,14.3-32,32-32
	c17.7,0,32,14.3,32,32c0,17.7-14.3,32-32,32C238.3,288,224,273.7,224,256z"/>
</svg>
